<?xml version="1.0" encoding="UTF-8"?>
<svg id="_レイヤー_2" data-name="レイヤー 2" xmlns="http://www.w3.org/2000/svg" viewBox="0 0 21.75 21.75">
  <defs>
    <style>
      .cls-1 {
        fill: #fff;
      }

      .cls-2 {
        fill: #5c91cc;
        fill-rule: evenodd;
      }
    </style>
  </defs>
  <g id="_レイヤー_1-2" data-name="レイヤー 1">
    <g id="g62320">
      <path id="path58205-9" class="cls-2" d="m21.75,10.87c0,6.01-4.87,10.87-10.87,10.87S0,16.88,0,10.87,4.87,0,10.87,0s10.87,4.87,10.87,10.87"/>
      <path id="path58207-8" class="cls-1" d="m8.68,17.14c5.31,0,8.22-4.4,8.22-8.22,0-.12,0-.25,0-.37.56-.41,1.05-.92,1.44-1.49-.52.23-1.07.38-1.66.45.6-.36,1.05-.92,1.27-1.6-.56.33-1.18.57-1.83.7-.53-.56-1.28-.91-2.11-.91-1.59,0-2.89,1.29-2.89,2.89,0,.23.02.45.07.66-2.4-.12-4.53-1.27-5.95-3.02-.25.43-.39.92-.39,1.45,0,1,.51,1.89,1.29,2.4-.47-.01-.92-.14-1.31-.36v.04c0,1.4.99,2.57,2.32,2.83-.24.07-.5.1-.76.1-.19,0-.37-.02-.54-.05.37,1.15,1.43,1.98,2.7,2.01-.99.77-2.23,1.24-3.59,1.24-.23,0-.46-.01-.69-.04,1.28.82,2.8,1.3,4.43,1.3"/>
    </g>
  </g>
</svg>